<svg width="189" height="48" viewBox="0 0 189 48" fill="none" xmlns="http://www.w3.org/2000/svg">
<path fill-rule="evenodd" clip-rule="evenodd" d="M143.186 23.2671C141.889 19.9303 138.754 17.356 135.404 16.5218C126.218 14.0557 114.582 15.0355 108.241 22.7595C104.567 27.5097 102.407 34.6544 105.144 40.6746C106.477 44.1923 110.187 46.7303 113.681 47.3835C121.391 48.3986 131.333 48.8344 137.53 43.1408C143.328 38.2813 145.275 30.1579 143.186 23.2671ZM124.166 37.5553C123.301 37.8809 121.896 38.0265 121.104 37.4097C119.266 36.3935 119.877 34.1094 120.093 32.5856C120.958 29.7565 121.931 25.7676 125.426 25.2236C126.574 25.1114 128.019 25.623 128.488 26.9648C128.812 31.0629 127.642 35.2307 124.166 37.5553ZM40.5972 0L34.1128 18.9334L29.1831 0H16.0836L0 46.2217H15.3052L21.402 28.5957L25.9419 46.2217H39.8198L55.9024 0H40.5972ZM65.9767 13.7898C68.6785 13.3904 71.524 12.5208 73.0015 9.83625C74.0823 7.6967 73.6865 5.12136 72.3898 3.23662C70.3007 1.02427 67.418 0.806877 64.3566 0.987869C61.5462 1.38726 58.7007 2.80082 57.6923 5.73815C57.2242 7.5875 57.3317 9.83625 58.5571 11.3226C60.357 13.536 63.2758 13.8616 65.9767 13.7898ZM54.8277 16.8858L44.5817 46.2641H59.1085L69.3545 16.8858H54.8277Z" fill="black"/>
<path fill-rule="evenodd" clip-rule="evenodd" d="M111.387 16.7486H94.3698L85.8607 26.6143L95.1545 0H80.2316L64 45.9588H78.9229L83.1115 34.405L85.4684 45.9588H101.046L98.4267 31.9378L111.387 16.7486ZM178.396 16.3997C171.852 16.3997 167.532 19.256 165.306 21.2034L167.007 16.7888H151.562L141.219 46H156.666L161.641 31.979C162.424 29.7722 163.733 28.7327 165.959 28.7327C168.185 28.7327 168.709 30.9395 168.054 32.7572L163.342 46H178.265L184.941 27.0446C186.775 21.8519 184.941 16.3997 178.396 16.3997ZM185.927 39.8813C185.523 39.88 185.122 39.9577 184.748 40.1101C184.374 40.2625 184.033 40.4866 183.746 40.7695C183.46 41.0524 183.232 41.3886 183.076 41.7589C182.92 42.1292 182.84 42.5263 182.839 42.9276C182.838 43.3301 182.917 43.7289 183.072 44.101C183.227 44.473 183.454 44.8111 183.741 45.0958C184.028 45.3805 184.369 45.6062 184.744 45.76C185.119 45.9138 185.522 45.9926 185.927 45.992C186.332 45.9914 186.733 45.9117 187.107 45.7573C187.48 45.6029 187.82 45.3769 188.105 45.0922C188.39 44.8075 188.616 44.4698 188.77 44.0983C188.924 43.7269 189.002 43.329 189 42.9276C189 42.5274 188.92 42.1312 188.766 41.7616C188.612 41.3919 188.385 41.056 188.1 40.7732C187.815 40.4903 187.476 40.2659 187.103 40.1129C186.73 39.9598 186.331 39.8811 185.927 39.8813ZM185.927 45.624C185.571 45.6244 185.217 45.5549 184.888 45.4194C184.558 45.2839 184.259 45.0852 184.007 44.8346C183.755 44.5841 183.556 44.2866 183.42 43.9593C183.284 43.632 183.215 43.2814 183.217 42.9276C183.217 42.575 183.287 42.226 183.424 41.9005C183.56 41.5749 183.76 41.2792 184.012 41.0304C184.264 40.7815 184.562 40.5843 184.891 40.4501C185.22 40.3159 185.572 40.2473 185.927 40.2482C186.644 40.2485 187.331 40.5309 187.837 41.0334C188.343 41.5358 188.628 42.2171 188.628 42.9276C188.63 43.2806 188.561 43.6306 188.426 43.9573C188.291 44.284 188.093 44.5812 187.842 44.8317C187.591 45.0821 187.293 45.2811 186.964 45.417C186.636 45.553 186.283 45.6233 185.927 45.624Z" fill="black"/>
<path fill-rule="evenodd" clip-rule="evenodd" d="M187 42.0586C187 41.7206 186.856 41.365 186.573 41.1966C186.289 41.0188 185.969 41 185.651 41H184V45H184.462V43.1548H185.314L186.398 45H186.946L185.803 43.1548C186.475 43.136 187 42.8452 187 42.0586ZM185.17 42.7651H184.462V41.3509H185.545C186.014 41.3509 186.53 41.4251 186.53 42.0445C186.529 42.8581 185.704 42.7651 185.17 42.7651Z" fill="black"/>
</svg>
