<svg width="206" height="48" viewBox="0 0 206 48" fill="none" xmlns="http://www.w3.org/2000/svg">
<path d="M0.0583773 0.254091C0.00251829 0.423484 -0.0254111 11.2365 0.030448 24.2798L0.0863069 47.9949L6.59388 47.9384L13.0735 47.8537L13.1573 42.3767C13.1852 38.9041 13.3249 36.7584 13.5204 36.5044C13.7718 36.222 15.1962 36.1373 19.8604 36.1373C23.184 36.1373 26.6473 35.9962 27.5689 35.8268C33.6855 34.7539 36.3667 32.4954 37.5398 27.4418C37.9587 25.6914 38.0425 24.0539 38.0704 18.9439C38.0704 12.4222 37.8749 10.6436 36.8695 7.19923C36.3388 5.5053 36.0316 4.96888 34.5792 3.52904C33.6576 2.59737 32.4007 1.60924 31.7863 1.38338C31.1718 1.12929 30.2222 0.762272 29.6916 0.536413C28.4348 0.0564644 0.198025 -0.197626 0.0583773 0.254091ZM23.2119 9.48605C24.6084 10.9259 24.7481 11.8858 24.6363 18.6615C24.4967 24.5339 24.2733 25.1832 21.7317 26.3972C20.419 27.0183 19.8604 27.103 17.2071 27.103C15.5593 27.103 13.9952 26.9618 13.7718 26.8207C13.4087 26.5948 13.3528 25.2114 13.269 17.7299C13.1852 9.51428 13.2132 8.86494 13.688 8.52615C14.079 8.24383 15.1682 8.15913 18.1567 8.24383L22.0948 8.32853L23.2119 9.48605ZM43.2095 0.225858C42.8185 0.479949 42.7347 46.301 43.0977 47.3173L43.377 47.9949L59.3527 47.9384L75.3563 47.8537L75.4401 43.9294C75.468 41.7556 75.4122 39.8922 75.2725 39.7511C75.1329 39.6099 70.9435 39.497 65.972 39.5252C59.0455 39.5252 56.7832 39.4405 56.4201 39.1864C55.9732 38.8476 55.9453 38.283 56.0012 33.3141L56.085 27.8088L64.2683 27.7241L72.4237 27.6676V18.9156L64.2683 18.8592L56.085 18.7745V8.61085L65.7206 8.46969C71.0272 8.38499 75.3842 8.27206 75.4401 8.24383C75.468 8.2156 75.468 6.3805 75.4401 4.15015L75.3563 0.141161L59.4365 0.0846969C50.6666 0.0282323 43.377 0.112929 43.2095 0.225858ZM82.0594 0.338787C81.9756 0.536413 81.9477 11.3211 81.9756 24.2798L82.0594 47.8537L87.7012 47.9384L93.3429 47.9949L93.4267 35.3186C93.5105 21.7106 93.5943 20.8637 94.7394 23.2069C95.0466 23.9128 95.3259 24.5621 95.3259 24.675C95.3259 24.788 95.5773 25.4655 95.9124 26.1996C96.9458 28.5711 97.3089 29.5027 98.2864 31.9025C98.5378 32.6083 99.0126 33.7376 99.2919 34.4434C99.5991 35.1492 99.9622 36.0244 100.102 36.4197C100.269 36.8149 100.577 37.4925 100.8 37.916C101.024 38.3677 101.191 38.8476 101.191 38.9888C101.191 39.2429 101.554 40.1745 102.588 42.4896C102.727 42.8002 103.118 43.7601 103.453 44.607C103.761 45.454 104.263 46.5833 104.487 47.0915L104.962 47.9949L111.385 47.9384L117.809 47.8537V0.141161L112.53 0.0564645C109.626 0.0282322 107.14 0.0846969 107 0.225858C106.861 0.36702 106.777 6.57812 106.777 14.0597V27.6394L106.163 27.4136C105.799 27.3006 105.464 26.9336 105.408 26.6513C105.353 26.3407 105.073 25.5502 104.766 24.8444C103.677 22.2753 103.342 21.513 102.42 19.198C101.861 17.7299 100.996 15.6407 100.633 14.822C100.353 14.2008 99.3198 11.7446 98.9847 10.8694C98.845 10.5589 98.454 9.59898 98.1189 8.75201C97.7837 7.90504 97.3927 6.94514 97.2531 6.63459C96.9179 5.81585 95.8845 3.33141 95.6052 2.68207C95.4656 2.37151 95.2701 1.8351 95.1863 1.49631C94.7953 0.0282321 94.5997 0 88.176 0C83.6514 0 82.1432 0.0846968 82.0594 0.338787ZM123.088 0.36702C123.032 0.564646 123.004 2.51267 123.032 4.65833L123.116 8.61085L129.54 8.69555C135.209 8.75201 135.991 8.80847 136.326 9.23196C136.606 9.59898 136.662 13.7491 136.662 28.2323V47.9949L143.169 47.9384L149.649 47.8537L149.733 28.684C149.761 15.1043 149.872 9.40135 150.096 9.11903C150.347 8.83671 151.827 8.75201 157.05 8.75201C163.223 8.75201 163.697 8.72378 163.809 8.24383C163.893 7.96151 163.949 6.01348 163.921 3.92429L163.893 0.141161L143.56 0.0564645C127.054 -5.46376e-08 123.2 0.0564646 123.088 0.36702ZM172.97 2.03273C172.635 3.16202 172.244 4.34777 172.132 4.65833C172.02 4.96888 171.657 6.18287 171.294 7.3404C170.959 8.49792 170.568 9.71191 170.456 10.0225C170.317 10.333 169.954 11.547 169.618 12.7045C169.283 13.8621 168.641 15.8948 168.222 17.2217C167.803 18.5486 167.244 20.3837 166.965 21.3154C166.686 22.247 166.379 23.2634 166.239 23.574C166.127 23.8845 165.764 25.0985 165.429 26.256C165.066 27.4136 164.703 28.6275 164.591 28.9381C164.451 29.2487 164.088 30.4626 163.753 31.6202C163.39 32.7777 163.027 33.9917 162.915 34.3022C162.776 34.6128 162.413 35.8268 162.077 36.9843C161.714 38.1418 161.351 39.3558 161.24 39.6664C161.1 39.9769 160.737 41.1909 160.402 42.3484C160.067 43.506 159.676 44.6917 159.536 44.974C159.396 45.2281 159.201 46.0469 159.089 46.7244L158.921 47.9949H164.703C169.954 47.9949 170.484 47.9384 170.624 47.5149C170.708 47.2326 170.875 46.8091 171.015 46.555C171.155 46.301 171.322 45.5105 171.434 44.7764C171.546 44.0706 171.741 43.393 171.881 43.3366C171.992 43.2519 172.188 42.6025 172.3 41.8967C172.411 41.1062 172.663 40.5416 172.998 40.3722C173.277 40.2028 176.182 40.0899 179.617 40.0899H185.734L186.181 41.1344C186.683 42.4049 187.354 44.6353 187.633 46.0186C188.024 47.9949 188.024 47.9949 194.671 47.9949C197.939 47.9949 200.62 47.9384 200.62 47.8255C200.62 47.4585 185.454 1.46808 185.119 0.846969L184.728 0.141161L179.17 0.0564645L173.584 0L172.97 2.03273ZM180.204 17.0805C180.399 17.8428 180.734 19.2544 180.958 20.1861C181.181 21.1178 181.544 22.6423 181.768 23.574C181.963 24.5056 182.326 26.0302 182.578 26.9618C183.499 30.632 183.639 31.3661 183.471 31.7613C183.36 32.1001 182.55 32.1848 179.087 32.1848H174.869L175.009 31.3943C175.121 30.9708 175.372 29.8698 175.595 28.9381C175.819 28.0064 176.21 26.4537 176.461 25.4655C176.685 24.5056 177.076 22.9529 177.299 22.0212C177.522 21.0895 177.886 19.5932 178.081 18.6898C178.528 16.77 179.338 15.076 179.673 15.4148C179.785 15.556 180.036 16.29 180.204 17.0805ZM202.575 0.536413C202.575 0.846969 202.771 1.27045 202.994 1.52454C203.218 1.7504 203.413 2.03273 203.413 2.14565C203.413 2.23035 203.972 3.24671 204.642 4.37601C205.312 5.47706 205.955 6.69105 206.038 7.00161C206.15 7.3404 206.374 7.62272 206.513 7.62272C206.653 7.62272 206.765 7.76388 206.765 7.93327C206.765 8.10267 207.575 9.62721 208.58 11.2929C209.586 12.9586 210.395 14.3985 210.395 14.4832C210.395 14.5961 211.15 15.923 212.071 17.4476C212.993 19.0003 213.747 20.3837 213.747 20.4966C213.747 20.6378 213.998 21.0613 214.306 21.4565C214.613 21.8518 214.864 22.36 214.864 22.5858C214.864 22.9811 213.524 25.9172 213.188 26.256C213.105 26.3407 212.658 27.1595 212.183 28.0911C211.708 29.0228 210.842 30.6603 210.256 31.7613C209.669 32.8342 208.803 34.4999 208.329 35.4315C207.854 36.3632 207.407 37.1819 207.323 37.2666C207.239 37.3513 206.793 38.1701 206.318 39.1017C205.843 40.0334 204.977 41.6709 204.391 42.7719C202.324 46.6115 202.017 47.2326 202.017 47.5996C202.017 47.9102 203.301 47.9949 208.859 47.9949C216.652 47.9949 215.87 48.249 217.099 45.1717C217.434 44.3247 217.825 43.3648 217.936 43.0542C218.914 40.711 219.417 39.5534 219.752 38.8194C219.947 38.3395 220.338 37.4643 220.59 36.8431C221.092 35.6009 221.176 35.4033 222.266 32.9189L222.992 31.2531L223.662 31.9025C224.053 32.2695 224.36 32.693 224.36 32.8342C224.36 33.1165 227.768 40.2875 230.197 45.1717L231.538 47.8537L238.297 47.9384C245.754 48.0231 245.587 48.0514 244.358 46.2163C243.995 45.6798 243.604 44.974 243.492 44.6353C243.408 44.2965 243.185 44.0424 243.045 44.0424C242.905 44.0424 242.794 43.9012 242.794 43.7318C242.794 43.5624 240.839 40.1463 238.465 36.1373C236.091 32.1283 234.136 28.7969 234.136 28.7122C234.136 28.6558 233.437 27.4136 232.599 26.0019C231.762 24.5621 231.063 23.2634 231.063 23.0658C231.063 22.6988 231.343 22.1341 235.728 13.5515C237.124 10.8412 239.107 6.94514 240.14 4.94065C241.146 2.90793 242.123 1.15752 242.263 1.01636C242.403 0.846969 242.514 0.564646 242.514 0.36702C242.514 0.0846969 241.174 0 236.091 0H229.667L229.108 1.32692C228.773 2.08919 228.326 3.13378 228.103 3.6702C227.851 4.20661 227.572 4.91242 227.432 5.22297C227.293 5.53353 226.93 6.40873 226.595 7.19923C226.259 7.96151 225.896 8.86494 225.757 9.1755C225.617 9.48605 225.254 10.3613 224.919 11.1518C223.969 13.3821 223.411 14.3985 223.103 14.3985C222.852 14.3985 222.293 13.2974 220.171 8.61085C219.752 7.67918 219.026 6.09818 218.551 5.08181C218.076 4.06545 217.378 2.51267 216.987 1.60924L216.261 0H209.418C202.855 0 202.575 0.0282322 202.575 0.536413Z" fill="#EA2626"/>
</svg>
