<svg width="32" height="32" viewBox="0 0 32 32" fill="none" xmlns="http://www.w3.org/2000/svg">
<path d="M12.0001 29.3337C12.7365 29.3337 13.3334 28.7367 13.3334 28.0003C13.3334 27.2639 12.7365 26.667 12.0001 26.667C11.2637 26.667 10.6667 27.2639 10.6667 28.0003C10.6667 28.7367 11.2637 29.3337 12.0001 29.3337Z" stroke="white" stroke-width="2" stroke-linecap="round" stroke-linejoin="round"/>
<path d="M26.6666 29.3337C27.403 29.3337 27.9999 28.7367 27.9999 28.0003C27.9999 27.2639 27.403 26.667 26.6666 26.667C25.9302 26.667 25.3333 27.2639 25.3333 28.0003C25.3333 28.7367 25.9302 29.3337 26.6666 29.3337Z" stroke="white" stroke-width="2" stroke-linecap="round" stroke-linejoin="round"/>
<path d="M1.33325 1.33301H6.66658L10.2399 19.1863C10.3618 19.8002 10.6958 20.3516 11.1833 20.7441C11.6708 21.1365 12.2808 21.345 12.9066 21.333H25.8666C26.4923 21.345 27.1023 21.1365 27.5899 20.7441C28.0774 20.3516 28.4113 19.8002 28.5332 19.1863L30.6666 7.99967H7.99992" stroke="white" stroke-width="2" stroke-linecap="round" stroke-linejoin="round"/>
</svg>
