<svg width="237" height="39" viewBox="0 0 237 39" fill="none" xmlns="http://www.w3.org/2000/svg">
<path fill-rule="evenodd" clip-rule="evenodd" d="M113.899 0.00530107V37.8625H102.778V0.00530107H113.899ZM52.3646 29.3836C52.3646 30.0343 52.1966 31.2194 51.6375 31.8525C51.0783 32.4856 50.5513 32.7713 49.8778 32.937C49.2704 33.0887 48.5523 33.3233 46.7997 33.3233C45.0472 33.3233 44.3309 33.0887 43.7199 32.937C43.0482 32.7713 42.5212 32.4856 41.962 31.8525C41.4029 31.2194 41.2349 30.0343 41.2349 29.3836L41.2367 0H30.3054V26.8441C30.0589 31.5774 31.7882 35.6581 36.7938 37.5292C38.1033 38.0177 42.4997 39 46.7962 39C51.0926 39 55.4873 38.0177 56.8003 37.5292C61.806 35.6581 63.5353 31.4434 63.2887 26.7101V0H52.3574L52.3646 29.3836ZM77.0873 29.6481C77.0873 30.3853 77.1998 31.5492 77.809 32.1488C78.4182 32.7484 79.1149 33.3127 80.9246 33.3127C82.7325 33.3127 83.5078 32.7484 84.1152 32.1488C84.7262 31.5492 84.7601 30.3853 84.7601 29.6481L84.7565 0H95.8808V27.1439C95.8808 30.2512 95.4056 31.1189 94.8304 32.3216C93.7978 34.4889 92.2311 36.1096 89.5228 37.4816C87.8543 38.3263 84.9548 38.9965 80.9318 38.9965C77.0873 38.9594 73.9128 38.2487 72.2889 37.4287C69.5824 36.062 68.2515 34.4872 67.2153 32.3216C66.8259 31.5086 66.3811 29.7892 66.3507 27.1439L66.3489 23.661H77.0891L77.0873 29.6481ZM120.811 5.10889V37.859H132.314V21.1991H146.504V15.5224H132.314V5.6785H147.272V0H125.977C124.373 0 122.953 0.10052 121.936 1.10219C120.92 2.10387 120.811 3.4071 120.811 5.10889ZM162.233 0.00530107V37.8625H151.114V0.00530107H162.233ZM169.122 32.7554C169.122 34.339 169.227 35.7446 170.242 36.748C171.257 37.7514 172.573 37.8608 174.299 37.8608L192.9 37.8643V32.184H180.244V0.00530107H169.12V32.7554H169.122ZM195.963 37.8625V0.00530107H208.234L214.948 24.9907L221.661 0.00530107H237V37.8625H226.263V11.3605L218.975 37.8625H209.578L202.102 11.3605V37.8625H195.963ZM0 5.10889V37.859H11.5066V21.1991H25.6964V15.5224H11.5066V5.6785H26.4628V0H5.16821C3.56219 0 2.14195 0.10052 1.12725 1.10219C0.112541 2.10387 0 3.4071 0 5.10889Z" fill="black"/>
</svg>
