<svg width="229" height="48" viewBox="0 0 229 48" fill="none" xmlns="http://www.w3.org/2000/svg">
<path d="M18.052 34.158C21.7187 40.2261 28.4433 44.2973 35.9274 44.2973C46.9856 44.2973 53.073 34.6648 53.073 34.6648L53.8565 37.2307C48.7369 43.9514 39.5911 48 29.3587 48C17.5779 48 7.41776 42.3274 2.74278 34.147C0.982582 31.0658 0 27.6242 0 23.9996C0 10.7446 13.1429 0 29.3583 0C40.8154 0 50.0399 4.9534 54.8822 12.1318L35.6582 23.7513L46.6293 6.74715C43.4906 4.75461 39.6397 2.88877 35.6582 2.88877C24.4031 2.88877 15.133 12.369 15.133 23.7291C15.133 27.5355 16.2039 31.1119 18.052 34.158ZM69.5258 34.1512C69.4682 34.5388 69.4394 34.9302 69.4396 35.3222C69.4396 39.6344 72.9034 43.1311 77.176 43.1311C81.4487 43.1311 84.912 39.6348 84.912 35.3222C84.9122 34.9288 84.8832 34.536 84.8254 34.147C84.2658 30.3944 81.0544 27.5137 77.1756 27.5137C73.2973 27.5137 70.0854 30.3944 69.5258 34.1512ZM98.232 34.147L102.077 47.2198H88.5896L85.9377 38.2681C84.1619 43.4263 78.1688 47.2198 71.0494 47.2198C62.5311 47.2198 55.6264 41.7895 55.6264 35.0897C55.6264 34.7762 55.6416 34.4648 55.6712 34.147C56.2772 27.8938 62.9305 22.9596 71.0494 22.9596C75.6576 22.9596 79.7937 24.549 82.6198 27.0688L78.9459 14.6708H63.4664C63.4664 14.6708 66.0418 13.1117 77.463 8.91714C88.8842 4.72305 92.5035 14.6708 92.5035 14.6708L98.232 34.147ZM141.355 34.147V47.2198H127.477V18.4976C127.477 17.4827 127.077 16.5093 126.366 15.7916C125.655 15.074 124.691 14.6708 123.685 14.6708C122.922 14.6706 122.176 14.9032 121.545 15.3381C120.915 15.7731 120.429 16.39 120.152 17.1082V47.2198H106.531V14.6708H98.5879C98.5879 14.6708 109.638 7.91341 113.47 7.91341C117.102 7.91341 119.79 10.7297 120.126 14.3172C125.47 11.4075 130.77 7.91341 134.416 7.91341C138.183 7.91341 141.25 10.9438 141.355 14.722V34.147ZM162.733 34.147L164.665 40.5904C164.702 43.352 166.95 45.5613 169.71 45.5613C172.531 45.5613 174.818 43.2535 174.818 40.4061C174.818 40.2043 174.806 40.006 174.784 39.8106L173.142 34.147L167.376 14.257C167.092 11.6796 164.928 9.67602 162.299 9.67602C159.696 9.67602 157.215 12.1305 156.898 14.6704L162.733 34.147ZM184.819 34.1495C182.191 42.1935 174.685 48 165.835 48C156.984 48 149.477 42.1939 146.848 34.147C146.183 32.1075 145.845 29.9736 145.847 27.8264C145.847 16.6847 154.795 7.65319 165.835 7.65319C176.873 7.65319 185.821 16.6847 185.821 27.8264C185.821 30.0348 185.47 32.1608 184.819 34.1495ZM207.797 34.147V47.2198H194.176V14.6708H186.56C186.56 14.6708 197.284 7.91341 201.116 7.91341C204.748 7.91341 207.435 10.7297 207.772 14.3172C213.116 11.4075 218.415 7.91341 222.062 7.91341C225.83 7.91341 228.896 10.9438 229 14.722V47.2198H215.122V18.4976C215.122 17.4827 214.723 16.5093 214.012 15.7916C213.301 15.074 212.336 14.6708 211.331 14.6708C210.567 14.6706 209.821 14.9032 209.191 15.3381C208.56 15.7731 208.075 16.39 207.797 17.1082V34.147Z" fill="#CC2229"/>
</svg>
