<svg width="275" height="48" viewBox="0 0 275 48" fill="none" xmlns="http://www.w3.org/2000/svg">
<path fill-rule="evenodd" clip-rule="evenodd" d="M273.556 41.8488C273.556 41.4531 273.381 41.0367 273.031 40.8381C272.677 40.6292 272.282 40.6086 271.886 40.6086H269.84V45.2974H270.413V43.1347H271.469L272.81 45.2974H273.492L272.073 43.1347C272.91 43.1111 273.556 42.7713 273.556 41.8488ZM271.292 42.683H270.411V41.025H271.752C272.335 41.025 272.975 41.1132 272.975 41.8385C272.976 42.7934 271.951 42.683 271.292 42.683ZM246.779 19.1803L255.367 10.0219C255.865 9.34959 256.112 8.87881 256.112 8.4757C256.112 7.80335 255.533 7.53412 253.713 7.53412H251.546V1.75222H275V7.53412H271.918C268.359 7.53412 267.698 8.07111 262.732 14.3238L249.146 28.9771V37.9192C249.146 40.207 250.303 41.0117 253.614 41.0117H258.743V46.5906H225.892V41.0117H231.022C234.33 41.0117 235.489 40.207 235.489 37.9192V28.9771L219.487 11.2975C216.843 8.20646 217.209 7.53412 209.846 7.53412V1.75222H239.555V7.53412H237.44C235.288 7.53412 234.376 7.93723 234.376 8.74346C234.376 9.41728 235.037 9.95426 235.451 10.4913L243.547 19.3039C244.509 20.3028 245.683 20.4323 246.779 19.1803ZM47.4476 1.75075H54.6141V17.8841H47.9956C47.4093 14.6592 45.3882 13.4043 43.5454 11.7124C40.2207 8.66107 33.0203 6.12027 26.9645 6.12027C19.1484 6.12027 12.552 8.5419 12.552 12.1022C12.552 21.9859 57.2523 14.1208 57.2523 32.8082C57.2523 42.555 47.6774 48 30.4822 48C24.5296 48 15.5217 46.1551 10.2069 43.3362C8.54086 42.3755 7.83378 44.2454 7.52149 46.5891H0.173822V29.9172H6.82031C8.28602 34.1529 10.3056 35.0253 12.1631 36.7069C15.3862 39.6655 23.058 41.8179 30.0933 41.7488C40.7009 41.6443 44.3482 39.3286 44.3482 35.9669C44.3482 32.6066 40.7407 31.7989 29.1167 29.9849L19.2471 28.371C8.10925 26.6894 0 24.203 0 15.3301C0 6.12027 10.2585 0.338374 26.4784 0.338374C33.3135 0.338374 39.0319 1.25054 44.5206 4.34893C46.0408 5.33611 47.4667 5.45381 47.4476 1.75075ZM187.307 28.7623L187.448 10.8311C187.448 8.47864 186.223 7.6724 182.721 7.6724H178.607V2.09354H204.783V7.6724H201.372C197.867 7.6724 196.642 8.48011 196.642 10.8311V46.9304L186.396 46.8495L153.217 15.4699V38.2591C153.217 40.5453 154.443 41.4178 157.944 41.4178H162.499V46.9304H135.313V41.4178H139.818C143.319 41.4178 144.545 40.5439 144.545 38.2591V10.8311C144.545 8.47864 143.319 7.6724 139.818 7.6724H135.313V2.09354H158.818L187.307 28.7623ZM99.6252 0C78.7636 0 65.7048 9.2113 65.7048 23.9985C65.7048 38.5209 78.5824 47.6616 98.9888 47.6616C120.664 47.6616 133.272 38.6548 133.272 23.26C133.273 9.41286 119.668 0 99.6252 0ZM99.1508 41.815C87.6034 41.815 80.9658 35.1592 80.9658 23.6631C80.9658 12.4377 87.8922 5.78189 99.7283 5.78189C111.083 5.78189 117.72 12.573 117.72 24.1354C117.72 35.4284 110.985 41.815 99.1508 41.815Z" fill="black"/>
</svg>
